<svg width="381" height="16" viewBox="0 0 381 16" fill="none" xmlns="http://www.w3.org/2000/svg">
<path d="M1.16806 0.799999H3.53606V5.536H9.88806V0.799999H12.2561V12H9.88806V6.448H3.53606V12H1.16806V0.799999ZM18.9583 12.16C17.9876 12.16 17.1396 11.9947 16.4143 11.664C15.6996 11.3333 15.145 10.864 14.7503 10.256C14.3663 9.63733 14.1743 8.912 14.1743 8.08C14.1743 7.248 14.3663 6.528 14.7503 5.92C15.145 5.30133 15.6996 4.82667 16.4143 4.496C17.1396 4.16533 17.9876 4 18.9583 4C19.929 4 20.7716 4.16533 21.4863 4.496C22.2116 4.82667 22.7663 5.30133 23.1503 5.92C23.5343 6.528 23.7263 7.248 23.7263 8.08C23.7263 8.912 23.5343 9.63733 23.1503 10.256C22.7663 10.864 22.2116 11.3333 21.4863 11.664C20.7716 11.9947 19.929 12.16 18.9583 12.16ZM18.9583 11.392C19.7903 11.392 20.4463 11.0987 20.9263 10.512C21.4063 9.91467 21.6463 9.104 21.6463 8.08C21.6463 7.056 21.4063 6.25067 20.9263 5.664C20.4463 5.06667 19.7903 4.768 18.9583 4.768C18.1263 4.768 17.4703 5.06667 16.9903 5.664C16.5103 6.25067 16.2703 7.056 16.2703 8.08C16.2703 9.104 16.5103 9.91467 16.9903 10.512C17.4703 11.0987 18.1263 11.392 18.9583 11.392ZM25.6357 4.16H27.6837V5.376C27.8757 4.96 28.2064 4.62933 28.6757 4.384C29.145 4.128 29.6784 4 30.2757 4C31.0544 4 31.689 4.15467 32.1797 4.464C32.681 4.76267 33.0384 5.18933 33.2517 5.744C33.4864 5.136 33.8384 4.69333 34.3077 4.416C34.7877 4.13867 35.3424 4 35.9717 4C37.0597 4 37.8757 4.25067 38.4197 4.752C38.9744 5.25333 39.2517 5.984 39.2517 6.944V12H37.1717V6.8C37.1717 6.14933 37.0224 5.648 36.7237 5.296C36.425 4.944 36.009 4.768 35.4757 4.768C34.8357 4.768 34.3344 5.056 33.9717 5.632C33.6197 6.19733 33.4437 7.00267 33.4437 8.048V12H31.4277V7.488C31.4277 6.61333 31.273 5.94133 30.9637 5.472C30.6544 5.00267 30.2117 4.768 29.6357 4.768C29.0277 4.768 28.553 5.01333 28.2117 5.504C27.8704 5.984 27.6997 6.66667 27.6997 7.552V12H25.6357V4.16ZM45.7708 11.392C47.2108 11.392 48.0588 10.7467 48.3148 9.456H49.8988C49.7068 10.32 49.2215 10.9867 48.4428 11.456C47.6748 11.9253 46.7148 12.16 45.5628 12.16C44.6348 12.16 43.8241 12 43.1308 11.68C42.4481 11.3493 41.9201 10.88 41.5468 10.272C41.1735 9.65333 40.9868 8.93333 40.9868 8.112C40.9868 7.28 41.1735 6.55467 41.5468 5.936C41.9201 5.31733 42.4481 4.84267 43.1308 4.512C43.8241 4.17067 44.6348 4 45.5628 4C46.9815 4 48.0695 4.352 48.8268 5.056C49.5948 5.76 49.9841 6.77333 49.9948 8.096H43.0668V8.192C43.0668 9.20533 43.2908 9.99467 43.7388 10.56C44.1975 11.1147 44.8748 11.392 45.7708 11.392ZM45.6268 4.768C44.9121 4.768 44.3415 4.992 43.9148 5.44C43.4988 5.87733 43.2321 6.50667 43.1148 7.328H48.0108C47.9041 6.496 47.6481 5.86133 47.2428 5.424C46.8481 4.98667 46.3095 4.768 45.6268 4.768ZM93.4191 12.16C91.7231 12.16 90.3737 11.8347 89.3711 11.184C88.3791 10.5333 87.8511 9.616 87.7871 8.432H89.7071C89.7711 9.41333 90.1017 10.128 90.6991 10.576C91.3071 11.024 92.2031 11.248 93.3871 11.248C94.3791 11.248 95.1204 11.072 95.6111 10.72C96.1124 10.368 96.3631 9.856 96.3631 9.184C96.3631 8.81067 96.2724 8.49067 96.0911 8.224C95.9097 7.95733 95.5737 7.71733 95.0831 7.504C94.5924 7.29067 93.8884 7.09333 92.9711 6.912C91.5311 6.624 90.3524 6.22933 89.4351 5.728C88.5284 5.22667 88.0751 4.50133 88.0751 3.552C88.0751 2.50667 88.5551 1.76533 89.5151 1.328C90.4751 0.879999 91.7124 0.655999 93.2271 0.655999C94.8697 0.655999 96.1231 0.933333 96.9871 1.488C97.8511 2.04267 98.3311 2.79467 98.4271 3.744H96.5391C96.3897 2.96533 96.0324 2.41067 95.4671 2.08C94.9017 1.73867 94.1231 1.568 93.1311 1.568C92.2244 1.568 91.5471 1.72267 91.0991 2.032C90.6511 2.33067 90.4271 2.72533 90.4271 3.216C90.4271 3.49333 90.5071 3.73867 90.6671 3.952C90.8271 4.16533 91.1364 4.368 91.5951 4.56C92.0644 4.752 92.7417 4.944 93.6271 5.136C94.8111 5.392 95.7551 5.65333 96.4591 5.92C97.1631 6.18667 97.7177 6.56 98.1231 7.04C98.5284 7.52 98.7311 8.14933 98.7311 8.928C98.7311 9.6 98.5124 10.1813 98.0751 10.672C97.6377 11.152 97.0191 11.52 96.2191 11.776C95.4191 12.032 94.4857 12.16 93.4191 12.16ZM100.713 1.072H102.793V5.52C103.038 5.05067 103.422 4.68267 103.945 4.416C104.468 4.13867 105.054 4 105.705 4C106.74 4 107.556 4.26667 108.153 4.8C108.75 5.32267 109.049 6.04267 109.049 6.96V12H106.969V6.816C106.969 6.15467 106.814 5.648 106.505 5.296C106.196 4.944 105.742 4.768 105.145 4.768C104.43 4.768 103.86 5.02933 103.433 5.552C103.006 6.064 102.793 6.74667 102.793 7.6V12H100.713V1.072ZM115.521 12.16C114.55 12.16 113.702 11.9947 112.977 11.664C112.262 11.3333 111.707 10.864 111.313 10.256C110.929 9.63733 110.737 8.912 110.737 8.08C110.737 7.248 110.929 6.528 111.313 5.92C111.707 5.30133 112.262 4.82667 112.977 4.496C113.702 4.16533 114.55 4 115.521 4C116.491 4 117.334 4.16533 118.049 4.496C118.774 4.82667 119.329 5.30133 119.713 5.92C120.097 6.528 120.289 7.248 120.289 8.08C120.289 8.912 120.097 9.63733 119.713 10.256C119.329 10.864 118.774 11.3333 118.049 11.664C117.334 11.9947 116.491 12.16 115.521 12.16ZM115.521 11.392C116.353 11.392 117.009 11.0987 117.489 10.512C117.969 9.91467 118.209 9.104 118.209 8.08C118.209 7.056 117.969 6.25067 117.489 5.664C117.009 5.06667 116.353 4.768 115.521 4.768C114.689 4.768 114.033 5.06667 113.553 5.664C113.073 6.25067 112.833 7.056 112.833 8.08C112.833 9.104 113.073 9.91467 113.553 10.512C114.033 11.0987 114.689 11.392 115.521 11.392ZM122.166 4.16H124.246V5.44C124.556 4.992 124.961 4.64 125.462 4.384C125.974 4.128 126.55 4 127.19 4C128.492 4 129.5 4.35733 130.214 5.072C130.94 5.776 131.302 6.752 131.302 8C131.302 8.85333 131.132 9.59467 130.79 10.224C130.46 10.8427 129.985 11.3227 129.366 11.664C128.758 11.9947 128.038 12.16 127.206 12.16C126.524 12.16 125.932 12.032 125.43 11.776C124.929 11.5093 124.534 11.12 124.246 10.608V15.04H122.166V4.16ZM126.71 11.44C127.478 11.44 128.092 11.1253 128.55 10.496C129.009 9.856 129.238 9.01333 129.238 7.968C129.238 6.944 129.02 6.15467 128.582 5.6C128.145 5.03467 127.537 4.752 126.758 4.752C125.99 4.752 125.377 5.056 124.918 5.664C124.47 6.26133 124.246 7.06667 124.246 8.08C124.246 9.12533 124.465 9.94667 124.902 10.544C125.34 11.1413 125.942 11.44 126.71 11.44ZM175.419 12.16C174.107 12.16 172.971 11.9307 172.011 11.472C171.061 11.0133 170.336 10.352 169.835 9.488C169.333 8.61333 169.083 7.568 169.083 6.352C169.083 5.15733 169.333 4.13333 169.835 3.28C170.347 2.42667 171.077 1.776 172.027 1.328C172.976 0.869333 174.107 0.639999 175.419 0.639999C176.72 0.639999 177.84 0.869333 178.779 1.328C179.728 1.776 180.453 2.42667 180.955 3.28C181.467 4.13333 181.723 5.15733 181.723 6.352C181.723 7.568 181.472 8.61333 180.971 9.488C180.469 10.352 179.744 11.0133 178.795 11.472C177.845 11.9307 176.72 12.16 175.419 12.16ZM175.419 11.248C176.677 11.248 177.643 10.832 178.315 10C178.987 9.15733 179.323 7.94133 179.323 6.352C179.323 4.79467 178.987 3.60533 178.315 2.784C177.643 1.96267 176.677 1.552 175.419 1.552C174.149 1.552 173.173 1.968 172.491 2.8C171.819 3.62133 171.483 4.80533 171.483 6.352C171.483 7.94133 171.819 9.15733 172.491 10C173.163 10.832 174.139 11.248 175.419 11.248ZM186.866 12.16C185.82 12.16 184.999 11.8933 184.402 11.36C183.804 10.816 183.506 10.0747 183.506 9.136V4.16H185.57V9.296C185.57 9.97867 185.724 10.5013 186.034 10.864C186.354 11.216 186.818 11.392 187.426 11.392C188.14 11.392 188.706 11.1413 189.122 10.64C189.548 10.1387 189.762 9.46133 189.762 8.608V4.16H191.826V12H189.762V10.672C189.516 11.1307 189.132 11.4933 188.61 11.76C188.098 12.0267 187.516 12.16 186.866 12.16ZM193.962 4.16H196.042V5.792C196.234 5.22667 196.548 4.78933 196.986 4.48C197.423 4.16 197.967 4 198.618 4C198.81 4 198.991 4.02133 199.162 4.064L199.018 5.328C198.847 5.24267 198.623 5.2 198.346 5.2C197.578 5.2 197.002 5.52 196.618 6.16C196.234 6.78933 196.042 7.54133 196.042 8.416V12H193.962V4.16ZM210.263 12.16C208.567 12.16 207.217 11.8347 206.215 11.184C205.223 10.5333 204.695 9.616 204.631 8.432H206.551C206.615 9.41333 206.945 10.128 207.543 10.576C208.151 11.024 209.047 11.248 210.231 11.248C211.223 11.248 211.964 11.072 212.455 10.72C212.956 10.368 213.207 9.856 213.207 9.184C213.207 8.81067 213.116 8.49067 212.935 8.224C212.753 7.95733 212.417 7.71733 211.927 7.504C211.436 7.29067 210.732 7.09333 209.815 6.912C208.375 6.624 207.196 6.22933 206.279 5.728C205.372 5.22667 204.919 4.50133 204.919 3.552C204.919 2.50667 205.399 1.76533 206.359 1.328C207.319 0.879999 208.556 0.655999 210.071 0.655999C211.713 0.655999 212.967 0.933333 213.831 1.488C214.695 2.04267 215.175 2.79467 215.271 3.744H213.383C213.233 2.96533 212.876 2.41067 212.311 2.08C211.745 1.73867 210.967 1.568 209.975 1.568C209.068 1.568 208.391 1.72267 207.943 2.032C207.495 2.33067 207.271 2.72533 207.271 3.216C207.271 3.49333 207.351 3.73867 207.511 3.952C207.671 4.16533 207.98 4.368 208.439 4.56C208.908 4.752 209.585 4.944 210.471 5.136C211.655 5.392 212.599 5.65333 213.303 5.92C214.007 6.18667 214.561 6.56 214.967 7.04C215.372 7.52 215.575 8.14933 215.575 8.928C215.575 9.6 215.356 10.1813 214.919 10.672C214.481 11.152 213.863 11.52 213.063 11.776C212.263 12.032 211.329 12.16 210.263 12.16ZM220.357 12.16C219.589 12.16 219.007 11.9627 218.613 11.568C218.218 11.1733 218.021 10.5867 218.021 9.808V4.928H216.629L216.885 4.16H218.053L218.629 1.952H220.085V4.16H222.261L222.021 4.928H220.085V9.984C220.085 10.9013 220.442 11.36 221.157 11.36C221.53 11.36 221.909 11.2587 222.293 11.056V11.856C221.802 12.0587 221.157 12.16 220.357 12.16ZM228.193 12.16C227.222 12.16 226.374 11.9947 225.649 11.664C224.934 11.3333 224.379 10.864 223.985 10.256C223.601 9.63733 223.409 8.912 223.409 8.08C223.409 7.248 223.601 6.528 223.985 5.92C224.379 5.30133 224.934 4.82667 225.649 4.496C226.374 4.16533 227.222 4 228.193 4C229.163 4 230.006 4.16533 230.721 4.496C231.446 4.82667 232.001 5.30133 232.385 5.92C232.769 6.528 232.961 7.248 232.961 8.08C232.961 8.912 232.769 9.63733 232.385 10.256C232.001 10.864 231.446 11.3333 230.721 11.664C230.006 11.9947 229.163 12.16 228.193 12.16ZM228.193 11.392C229.025 11.392 229.681 11.0987 230.161 10.512C230.641 9.91467 230.881 9.104 230.881 8.08C230.881 7.056 230.641 6.25067 230.161 5.664C229.681 5.06667 229.025 4.768 228.193 4.768C227.361 4.768 226.705 5.06667 226.225 5.664C225.745 6.25067 225.505 7.056 225.505 8.08C225.505 9.104 225.745 9.91467 226.225 10.512C226.705 11.0987 227.361 11.392 228.193 11.392ZM234.774 4.16H236.854V5.792C237.046 5.22667 237.361 4.78933 237.798 4.48C238.235 4.16 238.779 4 239.43 4C239.622 4 239.803 4.02133 239.974 4.064L239.83 5.328C239.659 5.24267 239.435 5.2 239.158 5.2C238.39 5.2 237.814 5.52 237.43 6.16C237.046 6.78933 236.854 7.54133 236.854 8.416V12H234.774V4.16ZM242.096 15.168C241.242 15.168 240.586 14.9813 240.128 14.608L240.608 13.744C240.725 13.8933 240.906 14.016 241.152 14.112C241.397 14.2187 241.626 14.272 241.84 14.272C242.234 14.272 242.602 14.1813 242.944 14C243.296 13.8187 243.573 13.5627 243.776 13.232C243.978 12.912 244.08 12.5547 244.08 12.16C244.08 11.712 244 11.3547 243.84 11.088L240.128 4.16H242.304L245.376 10.144L248.256 4.16H249.504L245.584 12.24C245.104 13.232 244.576 13.968 244 14.448C243.434 14.928 242.8 15.168 242.096 15.168ZM292.822 12.16C290.806 12.16 289.265 11.664 288.198 10.672C287.132 9.66933 286.598 8.22933 286.598 6.352C286.598 4.50667 287.126 3.09333 288.182 2.112C289.249 1.13067 290.785 0.639999 292.79 0.639999C294.497 0.639999 295.846 0.970666 296.838 1.632C297.83 2.28267 298.412 3.216 298.582 4.432H296.694C296.513 3.504 296.092 2.79467 295.43 2.304C294.769 1.80267 293.916 1.552 292.87 1.552C291.612 1.552 290.652 1.96267 289.99 2.784C289.329 3.60533 288.998 4.79467 288.998 6.352C288.998 7.94133 289.334 9.15733 290.006 10C290.678 10.832 291.644 11.248 292.902 11.248C293.937 11.248 294.78 11.0027 295.43 10.512C296.092 10.0107 296.513 9.296 296.694 8.368H298.582C298.412 9.584 297.83 10.5227 296.838 11.184C295.846 11.8347 294.508 12.16 292.822 12.16ZM304.724 12.16C303.753 12.16 302.905 11.9947 302.18 11.664C301.465 11.3333 300.911 10.864 300.516 10.256C300.132 9.63733 299.94 8.912 299.94 8.08C299.94 7.248 300.132 6.528 300.516 5.92C300.911 5.30133 301.465 4.82667 302.18 4.496C302.905 4.16533 303.753 4 304.724 4C305.695 4 306.537 4.16533 307.252 4.496C307.977 4.82667 308.532 5.30133 308.916 5.92C309.3 6.528 309.492 7.248 309.492 8.08C309.492 8.912 309.3 9.63733 308.916 10.256C308.532 10.864 307.977 11.3333 307.252 11.664C306.537 11.9947 305.695 12.16 304.724 12.16ZM304.724 11.392C305.556 11.392 306.212 11.0987 306.692 10.512C307.172 9.91467 307.412 9.104 307.412 8.08C307.412 7.056 307.172 6.25067 306.692 5.664C306.212 5.06667 305.556 4.768 304.724 4.768C303.892 4.768 303.236 5.06667 302.756 5.664C302.276 6.25067 302.036 7.056 302.036 8.08C302.036 9.104 302.276 9.91467 302.756 10.512C303.236 11.0987 303.892 11.392 304.724 11.392ZM311.401 4.16H313.465V5.488C313.711 5.02933 314.089 4.66667 314.601 4.4C315.124 4.13333 315.711 4 316.361 4C317.407 4 318.228 4.26667 318.825 4.8C319.423 5.33333 319.721 6.06933 319.721 7.008V12H317.657V6.848C317.657 6.176 317.497 5.664 317.177 5.312C316.857 4.94933 316.393 4.768 315.785 4.768C315.071 4.768 314.505 5.01867 314.089 5.52C313.673 6.02133 313.465 6.69867 313.465 7.552V12H311.401V4.16ZM324.544 12.16C323.776 12.16 323.195 11.9627 322.8 11.568C322.406 11.1733 322.208 10.5867 322.208 9.808V4.928H320.816L321.072 4.16H322.24L322.816 1.952H324.272V4.16H326.448L326.208 4.928H324.272V9.984C324.272 10.9013 324.63 11.36 325.344 11.36C325.718 11.36 326.096 11.2587 326.48 11.056V11.856C325.99 12.0587 325.344 12.16 324.544 12.16ZM331.052 12.16C329.943 12.16 329.111 11.952 328.556 11.536C328.002 11.12 327.724 10.5227 327.724 9.744C327.724 8.93333 328.055 8.30933 328.716 7.872C329.388 7.43467 330.354 7.216 331.612 7.216H333.788V6.672C333.788 6.05333 333.612 5.584 333.26 5.264C332.908 4.93333 332.402 4.768 331.74 4.768C331.1 4.768 330.588 4.928 330.204 5.248C329.831 5.55733 329.602 6.01067 329.516 6.608H327.948C328.066 5.76533 328.466 5.12 329.148 4.672C329.831 4.224 330.754 4 331.916 4C333.186 4 334.156 4.24533 334.828 4.736C335.511 5.22667 335.852 5.93067 335.852 6.848V9.408C335.852 10.3467 335.932 11.2107 336.092 12H334.156C334.05 11.5947 333.975 11.2053 333.932 10.832C333.623 11.2907 333.218 11.6267 332.716 11.84C332.215 12.0533 331.66 12.16 331.052 12.16ZM331.516 11.424C332.21 11.424 332.759 11.2267 333.164 10.832C333.58 10.4267 333.788 9.904 333.788 9.264V8H332.188C331.399 8 330.802 8.14933 330.396 8.448C329.991 8.736 329.788 9.16267 329.788 9.728C329.788 10.2827 329.932 10.704 330.22 10.992C330.519 11.28 330.951 11.424 331.516 11.424ZM342.535 12.16C341.052 12.16 339.895 11.808 339.063 11.104C338.241 10.3893 337.831 9.38133 337.831 8.08C337.831 6.77867 338.241 5.776 339.063 5.072C339.895 4.35733 341.052 4 342.535 4C343.783 4 344.78 4.23467 345.527 4.704C346.273 5.17333 346.716 5.84 346.855 6.704H345.287C345.159 6.08533 344.865 5.61067 344.407 5.28C343.959 4.93867 343.393 4.768 342.711 4.768C341.815 4.768 341.121 5.056 340.631 5.632C340.151 6.208 339.911 7.024 339.911 8.08C339.911 9.136 340.151 9.952 340.631 10.528C341.121 11.104 341.815 11.392 342.711 11.392C343.372 11.392 343.932 11.2213 344.391 10.88C344.86 10.5387 345.159 10.064 345.287 9.456H346.855C346.716 10.32 346.268 10.9867 345.511 11.456C344.764 11.9253 343.772 12.16 342.535 12.16ZM351.544 12.16C350.776 12.16 350.195 11.9627 349.8 11.568C349.406 11.1733 349.208 10.5867 349.208 9.808V4.928H347.816L348.072 4.16H349.24L349.816 1.952H351.272V4.16H353.448L353.208 4.928H351.272V9.984C351.272 10.9013 351.63 11.36 352.344 11.36C352.718 11.36 353.096 11.2587 353.48 11.056V11.856C352.99 12.0587 352.344 12.16 351.544 12.16ZM365.064 12.16C363.016 12.16 361.576 11.728 360.744 10.864C359.922 10 359.512 8.82133 359.512 7.328V0.799999H361.88V7.696C361.88 8.79467 362.109 9.664 362.568 10.304C363.037 10.9333 363.869 11.248 365.064 11.248C366.216 11.248 367.032 10.944 367.512 10.336C367.992 9.71733 368.232 8.83733 368.232 7.696V0.799999H370.6V7.328C370.6 8.82133 370.189 10 369.368 10.864C368.546 11.728 367.112 12.16 365.064 12.16ZM376.518 12.16C375.387 12.16 374.486 11.9573 373.814 11.552C373.153 11.136 372.731 10.5333 372.55 9.744H374.134C374.23 10.2773 374.481 10.688 374.886 10.976C375.291 11.2533 375.851 11.392 376.566 11.392C377.227 11.392 377.75 11.2587 378.134 10.992C378.529 10.7253 378.726 10.368 378.726 9.92C378.726 9.22667 377.995 8.768 376.534 8.544C375.179 8.33067 374.209 8.04267 373.622 7.68C373.035 7.31733 372.742 6.82667 372.742 6.208C372.742 5.52533 373.073 4.98667 373.734 4.592C374.395 4.19733 375.345 4 376.582 4C377.777 4 378.726 4.20267 379.43 4.608C380.145 5.01333 380.555 5.59467 380.662 6.352H379.094C378.987 5.84 378.731 5.45067 378.326 5.184C377.921 4.90667 377.403 4.768 376.774 4.768C376.166 4.768 375.691 4.86933 375.35 5.072C375.009 5.264 374.838 5.54133 374.838 5.904C374.838 6.11733 374.891 6.29867 374.998 6.448C375.115 6.58667 375.334 6.71467 375.654 6.832C375.974 6.93867 376.449 7.04533 377.078 7.152C378.369 7.36533 379.313 7.68 379.91 8.096C380.518 8.50133 380.822 9.04533 380.822 9.728C380.822 10.528 380.449 11.136 379.702 11.552C378.966 11.9573 377.905 12.16 376.518 12.16Z" fill="black"/>
<path d="M6.10352e-05 13.6H50.7468V14.4H6.10352e-05V13.6Z" fill="black"/>
</svg>
